<svg xmlns="http://www.w3.org/2000/svg" width="146.45" height="17.05" viewBox="0 0 146.45 17.05">
  <g id="Gruppe_106" data-name="Gruppe 106" transform="translate(96 2441.75)">
    <path id="Pfad_34" data-name="Pfad 34" d="M1.8,0V-16.25H7.95a10.733,10.733,0,0,1,3.225.462,4.731,4.731,0,0,1,2.375,1.613A5.03,5.03,0,0,1,14.45-11a5.23,5.23,0,0,1-.9,3.175,5.239,5.239,0,0,1-2.375,1.8A8.8,8.8,0,0,1,7.95-5.45H6.1V0Zm8.75,0L7.175-6.575l2.9-2.85L15.35,0ZM6.1-8.85H7.65A2.967,2.967,0,0,0,9.588-9.4,1.961,1.961,0,0,0,10.25-11a1.553,1.553,0,0,0-.662-1.45,3.8,3.8,0,0,0-1.938-.4H6.1ZM22.725,0V-16.325h10.1v2.875H26.15v3.575h5.675V-7H26.15v4.125h6.925V0ZM41.35,0V-16.325h3.425V0ZM53.9,0V-16.375h9.7v2.15H56.45V-9.2h6.075v2.15H56.45V0ZM71.55,0V-16.4h2.2V-1.85h7.1V0ZM88.825,0V-16.425h1.85V0ZM106.25.3a6.4,6.4,0,0,1-3.6-1.038A6.9,6.9,0,0,1,100.188-3.7,10.784,10.784,0,0,1,99.3-8.25a11.326,11.326,0,0,1,.513-3.538,7.956,7.956,0,0,1,1.462-2.687,6.2,6.2,0,0,1,2.25-1.7,7.03,7.03,0,0,1,2.875-.575,5.241,5.241,0,0,1,2.55.6,6.357,6.357,0,0,1,1.775,1.375l-.775.875a5.189,5.189,0,0,0-1.537-1.213,4.29,4.29,0,0,0-2.013-.463,5.11,5.11,0,0,0-3.025.9A5.818,5.818,0,0,0,101.4-12.15a9.755,9.755,0,0,0-.7,3.875,10.266,10.266,0,0,0,.675,3.9,5.756,5.756,0,0,0,1.938,2.563,5,5,0,0,0,3.012.913,4.785,4.785,0,0,0,2.238-.513A6.312,6.312,0,0,0,110.4-2.9l.775.85A7.787,7.787,0,0,1,109.05-.338,5.79,5.79,0,0,1,106.25.3ZM119.6,0V-16.5h.8v7.35h9.25V-16.5h.8V0h-.8V-8.45H120.4V0Z" transform="translate(-80 -2425)" fill="#040336"/>
    <path id="Icon_feather-chevron-left" data-name="Icon feather-chevron-left" d="M18.874,19.748,13.5,14.374,18.874,9" transform="translate(-108.5 -2447.748)" fill="none" stroke="#040336" stroke-linecap="round" stroke-linejoin="round" stroke-width="2"/>
  </g>
</svg>
